<svg xmlns="http://www.w3.org/2000/svg" width="780" height="460" preserveAspectRatio="xMidYMid meet" version="1.0" viewBox="0 0 7800 4600"><g id="layer101" fill="#182222" stroke="none"><path d="M0 2300 l0 -2300 3900 0 3900 0 0 2300 0 2300 -3900 0 -3900 0 0 -2300z"/></g><g id="layer102" fill="#273333" stroke="none"><path d="M0 2300 l0 -2300 3900 0 3900 0 0 2300 0 2300 -3900 0 -3900 0 0 -2300z m2395 1015 l0 -30 -375 0 c-354 0 -375 1 -378 18 -10 48 -18 47 380 45 l373 -3 0 -30z"/></g><g id="layer103" fill="#374242" stroke="none"><path d="M0 2300 l0 -2300 3900 0 3900 0 0 2300 0 2300 -3900 0 -3900 0 0 -2300z m2398 1063 l-3 -78 -375 0 -375 0 -3 78 -3 77 381 0 381 0 -3 -77z"/></g><g id="layer104" fill="#505c5d" stroke="none"><path d="M0 2300 l0 -2300 3900 0 3900 0 0 2300 0 2300 -3900 0 -3900 0 0 -2300z m2590 1110 l0 -30 223 2 222 3 3 28 3 27 1775 0 1774 0 0 -1245 0 -1245 -2690 0 -2690 0 0 1245 0 1245 690 0 690 0 0 -30z"/><path d="M4794 2680 c-116 -46 -195 -160 -196 -283 0 -98 25 -161 91 -228 41 -41 71 -61 111 -74 211 -71 420 77 420 295 0 120 -68 228 -175 280 -69 34 -179 38 -251 10z m105 -194 c30 -16 51 -53 51 -91 0 -24 -3 -25 -55 -25 -48 0 -55 2 -55 20 0 16 7 20 35 20 39 0 42 5 18 32 -22 24 -77 24 -103 -2 -54 -54 17 -160 80 -120 9 5 19 5 27 -2 20 -16 16 -24 -18 -38 -71 -30 -149 30 -149 114 0 30 7 45 34 72 38 38 85 45 135 20z m151 -71 c0 -8 9 -15 20 -15 11 0 20 -4 20 -9 0 -5 -9 -11 -20 -14 -11 -3 -20 -12 -20 -21 0 -9 -4 -16 -10 -16 -5 0 -10 9 -10 20 0 11 -7 20 -15 20 -8 0 -15 5 -15 10 0 6 7 10 15 10 8 0 15 7 15 15 0 8 5 15 10 15 6 0 10 -7 10 -15z"/><path d="M5804 2679 c-114 -44 -197 -162 -198 -282 0 -95 27 -162 93 -228 99 -98 232 -121 356 -60 143 71 206 222 159 381 -23 76 -118 171 -194 194 -71 21 -153 19 -216 -5z m227 -176 c26 -26 38 -140 20 -195 -15 -46 -44 -58 -142 -58 -72 0 -82 3 -104 25 -22 21 -25 33 -25 102 0 43 3 89 7 102 9 36 56 52 145 49 64 -3 81 -7 99 -25z"/><path d="M5816 2494 c-20 -19 -23 -193 -4 -212 8 -8 46 -12 103 -12 120 0 125 5 125 122 0 112 -6 118 -123 118 -64 0 -89 -4 -101 -16z m153 -59 c23 -22 18 -75 -8 -97 -31 -24 -60 -23 -88 4 -30 28 -29 63 3 94 27 28 64 27 93 -1z m41 -119 c0 -11 -19 -15 -25 -6 -3 5 1 10 9 10 9 0 16 -2 16 -4z"/><path d="M5883 2428 c-31 -40 -12 -88 36 -88 33 0 51 16 51 46 0 44 -63 73 -87 42z"/></g><g id="layer105" fill="#59cb59" stroke="none"><path d="M0 2300 l0 -2300 3900 0 3900 0 0 2300 0 2300 -3900 0 -3900 0 0 -2300z m6590 -65 l0 -1285 -2690 0 -2690 0 0 1285 0 1285 2690 0 2690 0 0 -1285z"/></g><g id="layer106" fill="#cfd2d2" stroke="none"><path d="M4794 2680 c-116 -46 -195 -160 -196 -283 0 -98 25 -161 91 -228 41 -41 71 -61 111 -74 211 -71 420 77 420 295 0 120 -68 228 -175 280 -69 34 -179 38 -251 10z m105 -194 c30 -16 51 -53 51 -91 0 -24 -3 -25 -55 -25 -48 0 -55 2 -55 20 0 16 7 20 35 20 39 0 42 5 18 32 -22 24 -77 24 -103 -2 -54 -54 17 -160 80 -120 9 5 19 5 27 -2 20 -16 16 -24 -18 -38 -71 -30 -149 30 -149 114 0 30 7 45 34 72 38 38 85 45 135 20z m161 -71 c0 -8 7 -15 15 -15 8 0 15 -7 15 -15 0 -8 -7 -15 -15 -15 -8 0 -15 -7 -15 -15 0 -8 -7 -15 -15 -15 -8 0 -15 6 -15 14 0 7 -9 16 -20 19 -11 3 -20 10 -20 16 0 6 9 11 20 11 11 0 20 7 20 15 0 8 7 15 15 15 8 0 15 -7 15 -15z"/><path d="M5804 2679 c-114 -44 -197 -162 -198 -282 0 -95 27 -162 93 -228 99 -98 232 -121 356 -60 143 71 206 222 159 381 -23 76 -118 171 -194 194 -71 21 -153 19 -216 -5z m210 -160 c37 -17 49 -57 44 -150 -5 -109 -16 -119 -141 -119 -79 0 -94 3 -114 22 -21 19 -23 30 -23 115 0 86 2 96 25 118 22 22 32 25 104 25 44 0 91 -5 105 -11z"/><path d="M5822 2494 c-20 -14 -22 -24 -22 -103 0 -114 6 -121 118 -121 70 0 85 3 103 21 19 19 21 30 17 106 -2 70 -6 87 -22 99 -28 20 -164 19 -194 -2z m143 -59 c64 -63 -19 -151 -93 -99 -15 11 -22 25 -22 50 0 68 68 97 115 49z m45 -126 c0 -5 -7 -9 -15 -9 -15 0 -20 12 -9 23 8 8 24 -1 24 -14z"/><path d="M5886 2424 c-19 -18 -21 -55 -4 -72 18 -18 53 -15 71 6 22 24 21 45 -1 65 -23 21 -46 22 -66 1z"/></g><g id="layer107" fill="#dee1e1" stroke="none"><path d="M1105 3758 c-3 -7 -4 -668 -3 -1468 l3 -1455 2795 0 2795 0 0 1465 0 1465 -2793 3 c-2229 2 -2794 0 -2797 -10z m5485 -1523 l0 -1285 -2690 0 -2690 0 0 1285 0 1285 2690 0 2690 0 0 -1285z"/><path d="M2597 3444 c-4 -4 -7 -20 -7 -36 l0 -28 223 2 222 3 0 30 0 30 -216 3 c-118 1 -218 -1 -222 -4z"/><path d="M4794 2680 c-116 -46 -195 -160 -196 -283 0 -98 25 -161 91 -228 41 -41 71 -61 111 -74 211 -71 420 77 420 295 0 120 -68 228 -175 280 -69 34 -179 38 -251 10z m105 -194 c30 -16 51 -53 51 -91 0 -24 -3 -25 -55 -25 -48 0 -55 2 -55 20 0 16 7 20 35 20 39 0 42 5 18 32 -22 24 -77 24 -103 -2 -54 -54 17 -160 80 -120 9 5 19 5 27 -2 20 -16 16 -24 -18 -38 -71 -30 -149 30 -149 114 0 30 7 45 34 72 38 38 85 45 135 20z m161 -61 c0 -8 7 -15 15 -15 8 0 15 -9 15 -20 0 -11 -6 -20 -14 -20 -7 0 -16 -9 -19 -20 -3 -11 -10 -20 -17 -20 -7 0 -14 9 -17 20 -3 11 -12 20 -19 20 -21 0 -17 19 9 46 25 27 47 31 47 9z"/><path d="M5804 2679 c-114 -44 -197 -162 -198 -282 0 -95 27 -162 93 -228 99 -98 232 -121 356 -60 143 71 206 222 159 381 -23 76 -118 171 -194 194 -71 21 -153 19 -216 -5z m231 -174 c23 -22 25 -32 25 -118 0 -87 -2 -95 -25 -117 -21 -20 -39 -25 -95 -28 -138 -8 -174 26 -168 159 3 65 7 81 27 103 23 24 30 26 118 26 86 0 96 -2 118 -25z"/><path d="M5810 2481 c-5 -11 -10 -54 -10 -95 0 -64 3 -79 21 -97 19 -19 30 -21 105 -17 62 2 87 7 94 18 14 22 12 184 -2 198 -8 8 -46 12 -105 12 -81 0 -94 -2 -103 -19z m160 -41 c40 -40 16 -112 -42 -126 -22 -5 -33 0 -58 24 -35 36 -38 60 -9 96 26 33 79 36 109 6z m38 -127 c-4 -22 -22 -20 -26 1 -2 10 3 16 13 16 10 0 15 -7 13 -17z"/><path d="M5881 2416 c-20 -23 -5 -65 24 -72 35 -9 57 12 53 50 -3 27 -7 31 -34 34 -19 2 -36 -3 -43 -12z"/><path d="M1720 1981 c0 -39 89 -81 169 -81 78 1 182 63 153 92 -8 8 -21 4 -50 -16 -68 -47 -148 -47 -216 -1 -44 30 -56 31 -56 6z"/><path d="M2724 1988 c-10 -16 47 -62 95 -77 55 -16 120 -13 166 8 46 21 80 55 70 70 -10 17 -23 13 -60 -14 -59 -46 -142 -46 -209 0 -41 28 -52 30 -62 13z"/><path d="M3742 1978 c5 -34 97 -78 162 -78 81 1 188 62 159 91 -8 8 -22 3 -50 -16 -70 -46 -150 -46 -217 0 -46 31 -58 31 -54 3z"/><path d="M4745 1989 c-10 -15 24 -49 70 -70 73 -34 176 -20 237 32 27 22 31 30 20 40 -10 11 -16 11 -30 1 -81 -59 -173 -66 -236 -19 -38 29 -51 33 -61 16z"/><path d="M5755 1989 c-19 -30 83 -88 156 -89 80 0 169 42 169 81 0 25 -12 24 -56 -6 -67 -45 -148 -46 -213 0 -41 28 -47 30 -56 14z"/><path d="M1645 1899 c-11 -16 33 -57 93 -86 77 -37 177 -43 255 -13 62 23 127 73 127 96 0 22 -16 17 -70 -20 -59 -41 -135 -61 -200 -53 -51 6 -137 45 -159 71 -15 18 -37 21 -46 5z"/><path d="M2655 1899 c-11 -16 33 -57 94 -87 76 -37 199 -39 277 -4 63 28 113 77 97 93 -8 8 -23 3 -55 -20 -109 -78 -252 -79 -349 -2 -41 33 -54 37 -64 20z"/><path d="M3665 1899 c-11 -16 33 -57 92 -86 71 -34 171 -42 241 -19 68 23 142 73 142 97 0 25 -15 24 -53 -5 -66 -49 -99 -60 -182 -60 -68 -1 -88 3 -131 26 -27 14 -56 34 -63 42 -15 18 -37 21 -46 5z"/><path d="M4674 1899 c-10 -17 44 -65 100 -90 108 -46 240 -33 327 34 48 36 58 54 35 63 -9 3 -31 -7 -54 -26 -97 -77 -245 -78 -347 -1 -44 34 -51 36 -61 20z"/><path d="M5681 1893 c0 -24 49 -61 117 -89 67 -28 145 -31 220 -9 51 15 132 69 140 92 7 23 -28 26 -51 5 -94 -86 -246 -93 -357 -16 -56 38 -70 42 -69 17z"/><path d="M1565 1810 c-10 -15 57 -73 120 -104 151 -74 338 -56 465 45 49 39 64 69 35 69 -8 0 -38 -18 -67 -40 -75 -57 -135 -75 -243 -75 -77 0 -99 5 -148 28 -32 14 -76 40 -97 57 -40 32 -55 36 -65 20z"/><path d="M2574 1808 c-10 -15 57 -71 123 -103 148 -71 330 -54 458 43 51 38 70 72 41 72 -9 0 -35 -15 -59 -33 -81 -62 -141 -81 -247 -81 -106 0 -166 19 -247 81 -47 36 -58 39 -69 21z"/><path d="M3585 1811 c-8 -13 50 -65 108 -97 129 -70 285 -71 419 -3 48 25 108 77 108 95 0 24 -30 15 -73 -21 -65 -56 -136 -79 -247 -79 -106 -1 -151 14 -241 79 -51 37 -64 41 -74 26z"/><path d="M4592 1803 c5 -25 94 -89 158 -115 80 -32 242 -32 320 1 59 24 160 95 160 112 0 23 -31 18 -72 -13 -82 -63 -141 -82 -248 -82 -106 0 -166 19 -247 81 -48 36 -76 43 -71 16z"/><path d="M5600 1805 c0 -22 92 -91 157 -116 78 -31 233 -33 308 -5 62 24 152 82 166 107 18 34 -17 34 -60 0 -22 -17 -66 -44 -98 -58 -49 -23 -71 -28 -148 -28 -108 0 -168 18 -243 75 -55 42 -82 50 -82 25z"/></g><g id="layer108" fill="#fefefe" stroke="none"><path d="M1776 2683 c-72 -22 -168 -120 -190 -193 -47 -159 16 -310 159 -381 124 -61 257 -38 356 60 99 100 122 231 60 355 -71 145 -225 209 -385 159z m116 -173 c46 -13 94 -67 108 -122 7 -24 15 -50 19 -58 11 -21 3 -40 -14 -34 -7 3 -16 1 -20 -5 -18 -31 -95 2 -95 41 0 26 -40 23 -84 -7 -20 -14 -39 -25 -41 -25 -10 0 -4 47 7 58 9 9 9 12 0 12 -19 0 -14 17 10 40 13 12 17 20 9 20 -11 0 -11 3 -1 15 7 8 19 15 26 15 26 0 14 21 -16 27 -51 10 -33 29 30 32 14 0 42 -4 62 -9z"/><path d="M2788 2685 c-167 -61 -250 -242 -188 -408 44 -117 160 -199 282 -200 96 -1 163 26 229 92 198 199 57 533 -224 530 -34 0 -79 -7 -99 -14z m122 -225 c0 -62 2 -70 19 -70 12 0 20 -9 23 -25 4 -21 1 -25 -19 -25 -20 0 -24 -4 -21 -22 2 -15 11 -24 26 -26 14 -2 22 -10 22 -23 0 -16 -7 -19 -40 -19 -47 0 -80 27 -80 65 0 16 -6 25 -15 25 -9 0 -15 9 -15 25 0 16 6 25 15 25 12 0 15 14 15 70 l0 70 35 0 35 0 0 -70z"/><path d="M3782 2679 c-71 -28 -144 -101 -171 -174 -103 -275 174 -524 436 -393 182 91 219 351 73 498 -88 87 -220 114 -338 69z m48 -259 c0 -79 0 -80 -25 -80 -25 0 -25 1 -25 80 0 79 0 80 25 80 25 0 25 -1 25 -80z m80 39 c0 -49 15 -79 39 -79 23 0 31 19 31 76 0 40 2 44 25 44 24 0 25 -3 25 -62 0 -87 -33 -118 -93 -87 -16 9 -22 9 -25 0 -2 -6 -15 -11 -28 -11 -23 0 -24 2 -24 80 0 79 0 80 25 80 23 0 25 -4 25 -41z m-77 -163 c7 -19 -18 -40 -38 -32 -8 3 -15 15 -15 26 0 14 7 20 24 20 13 0 26 -6 29 -14z"/><path d="M4794 2680 c-116 -46 -195 -160 -196 -283 0 -98 25 -161 91 -228 41 -41 71 -61 111 -74 211 -71 420 77 420 295 0 120 -68 228 -175 280 -69 34 -179 38 -251 10z m105 -194 c30 -16 51 -53 51 -91 0 -24 -3 -25 -55 -25 -48 0 -55 2 -55 20 0 16 7 20 35 20 39 0 42 5 18 32 -22 24 -77 24 -103 -2 -54 -54 17 -160 80 -120 9 5 19 5 27 -2 20 -16 16 -24 -18 -38 -71 -30 -149 30 -149 114 0 30 7 45 34 72 38 38 85 45 135 20z m161 -61 c0 -8 7 -15 15 -15 8 0 15 -9 15 -20 0 -11 -7 -20 -15 -20 -8 0 -15 -9 -15 -20 0 -12 -7 -20 -16 -20 -9 0 -18 9 -21 20 -3 11 -12 20 -19 20 -8 0 -14 9 -14 20 0 11 7 20 15 20 8 0 15 7 15 15 0 8 9 15 20 15 11 0 20 -7 20 -15z"/><path d="M5804 2679 c-114 -44 -197 -162 -198 -282 0 -95 27 -162 93 -228 99 -98 232 -121 356 -60 143 71 206 222 159 381 -23 76 -118 171 -194 194 -71 21 -153 19 -216 -5z m233 -171 c21 -20 23 -30 23 -120 0 -84 -3 -101 -19 -117 -25 -25 -75 -34 -156 -29 -92 6 -108 24 -113 123 -8 146 9 165 145 165 86 0 99 -3 120 -22z"/><path d="M5820 2490 c-20 -12 -22 -182 -2 -202 21 -21 157 -24 187 -4 24 15 25 22 25 104 0 55 -4 92 -12 100 -14 14 -176 16 -198 2z m150 -50 c30 -30 27 -83 -6 -109 -30 -24 -43 -26 -77 -10 -24 11 -47 47 -47 73 0 7 9 25 21 40 26 33 79 36 109 6z m38 -127 c-5 -25 -28 -28 -28 -4 0 12 6 21 16 21 9 0 14 -7 12 -17z"/><path d="M5878 2405 c-10 -22 -9 -29 10 -47 18 -19 25 -20 47 -10 22 10 26 18 23 45 -3 28 -7 32 -35 35 -27 3 -35 -1 -45 -23z"/></g></svg>